<?xml version="1.0" encoding="UTF-8"?>
<svg width="206px" height="90px" viewBox="0 0 206 90" version="1.1" xmlns="http://www.w3.org/2000/svg" xmlns:xlink="http://www.w3.org/1999/xlink">
    <!-- Generator: Sketch 48.2 (47327) - http://www.bohemiancoding.com/sketch -->
    <title>v copy</title>
    <desc>Created with Sketch.</desc>
    <defs></defs>
    <g id="Page-1" stroke="none" stroke-width="1" fill="none" fill-rule="evenodd">
        <g id="v-copy">
            <g id="Group" transform="translate(2.000000, 1.000000)">
                <polygon id="Fill-1" fill="#E92140" points="127.715232 77.1692308 203 77.1692308 203 0 127.715232 0"></polygon>
                <polygon id="Fill-2" fill="#FFFFFF" points="150.569536 56.8615385 161.324503 56.8615385 161.324503 21.6615385 150.569536 21.6615385"></polygon>
                <polygon id="Fill-3" fill="#FFFFFF" points="169.390728 56.8615385 180.145695 56.8615385 180.145695 21.6615385 169.390728 21.6615385"></polygon>
                <polygon id="Fill-4" fill="#E92140" points="141.679174 74.4615385 162.668874 74.4615385 138.470199 88"></polygon>
                <path d="M8.36422124,44.6769231 L10.696878,44.6769231 L18.8211921,63.6307692 L15.8176085,63.6307692 L13.914616,58.9458496 L4.87946791,58.9458496 L3.00222817,63.6307692 L0,63.6307692 L8.36422124,44.6769231 Z M12.9753184,56.6970882 L9.43634877,47.9965233 L9.38348787,47.9965233 L5.79030192,56.6970882 L12.9753184,56.6970882 Z" id="Fill-5" fill="#FFFFFF"></path>
                <path d="M26.9885899,44.6769231 L29.5761589,44.6769231 L29.5761589,58.8303454 C29.5761589,60.0821798 29.3867582,61.1018305 29.0093192,61.8948921 C28.6332428,62.6879537 28.1604221,63.3117729 27.594945,63.7691471 C27.0281052,64.2265212 26.4217502,64.5426269 25.7758799,64.7202615 C25.128647,64.8964974 24.5359179,64.9846154 23.9963301,64.9846154 C22.648723,64.9846154 21.5123183,64.6265488 20.5871159,63.9076181 C19.6605509,63.1914849 19.0732722,62.1032981 18.8211921,60.6500511 L21.3556198,60.0625981 C21.4986924,60.808104 21.7957382,61.3969557 22.2453947,61.8249572 C22.6936887,62.2543574 23.2782422,62.4683582 23.9963301,62.4683582 C24.643563,62.4683582 25.1599867,62.3382793 25.5456012,62.0753241 C25.9325784,61.8151663 26.233712,61.4752828 26.4490021,61.0556735 C26.6656548,60.6360641 26.8087273,60.1549121 26.8809449,59.6150148 C26.9517999,59.0737188 26.9885899,58.5240306 26.9885899,57.9645515 L26.9885899,44.6769231 Z" id="Fill-6" fill="#FFFFFF"></path>
                <polygon id="Fill-8" fill="#FFFFFF" points="34.9536424 44.6769231 46.5945548 44.6769231 46.5945548 47.0863103 37.3990066 47.0863103 37.3990066 52.7349848 45.9571376 52.7349848 45.9571376 55.1430335 37.3990066 55.1430335 37.3990066 61.2200435 47.0529801 61.2200435 47.0529801 63.6307692 34.9536424 63.6307692"></polygon>
                <polygon id="Fill-10" fill="#FFFFFF" points="52.4304636 44.6769231 54.882875 44.6769231 54.882875 61.2200435 63.1854305 61.2200435 63.1854305 63.6307692 52.4304636 63.6307692"></polygon>
                <path d="M69.2350993,63.6307692 C68.684989,63.6307692 68.210596,63.4307692 67.8134658,63.0307692 C67.4163355,62.6292308 67.218543,62.1538462 67.218543,61.6 C67.218543,61.0461538 67.4163355,60.5676923 67.8134658,60.1692308 C68.210596,59.7707692 68.684989,59.5692308 69.2350993,59.5692308 C69.7852097,59.5692308 70.2596026,59.7707692 70.6567329,60.1692308 C71.0538631,60.5676923 71.2516556,61.0461538 71.2516556,61.6 C71.2516556,62.1538462 71.0538631,62.6292308 70.6567329,63.0307692 C70.2596026,63.4307692 69.7852097,63.6307692 69.2350993,63.6307692" id="Fill-12" fill="#FFFFFF"></path>
                <path d="M75.9658086,59.0994473 C76.4089888,59.8091725 76.9778663,60.3332772 77.6711453,60.6703966 C78.3618325,61.0061512 79.0758451,61.1753933 79.8105912,61.1753933 C80.2213752,61.1753933 80.6386384,61.1057856 81.0675643,60.9693 C81.4938984,60.8328144 81.882653,60.6294509 82.233828,60.3564797 C82.5837071,60.0835085 82.8700896,59.7463891 83.0916797,59.3464863 C83.3132698,58.9452186 83.4247128,58.4811676 83.4247128,57.9529683 C83.4247128,57.2077569 83.2031227,56.638612 82.7586466,56.2468983 C82.3128747,55.8565495 81.7621391,55.5289841 81.1051439,55.2655669 C80.4468528,55.0007848 79.7302486,54.7469216 78.9527395,54.4998826 C78.1739345,54.2555734 77.4573303,53.9143594 76.7990392,53.4762406 C76.1407482,53.0394867 75.5900125,52.4539635 75.1455365,51.7155764 C74.7010604,50.979919 74.4794703,49.9835742 74.4794703,48.7265418 C74.4794703,48.1642211 74.5948009,47.5623196 74.8254619,46.9249319 C75.0561229,46.288909 75.4189605,45.7061155 75.9139747,45.1779162 C76.4089888,44.6510818 77.0465463,44.2102333 77.8240554,43.8553708 C78.6015645,43.5005082 79.5371672,43.3230769 80.6308633,43.3230769 C81.6221875,43.3230769 82.5707486,43.4677517 83.4752509,43.758466 C84.3823448,44.0505452 85.1767,44.6428927 85.8596122,45.5341436 L83.8601179,47.4708743 C83.5530018,46.961783 83.1175967,46.5536911 82.5539025,46.2425039 C81.9889126,45.9340464 81.3487634,45.7784529 80.6308633,45.7784529 C79.9479511,45.7784529 79.3790736,45.8753576 78.9268225,46.0650726 C78.4732755,46.2575173 78.1104379,46.5031914 77.8370139,46.8034597 C77.5635898,47.1023632 77.3718043,47.425834 77.2603613,47.7725075 C77.1489183,48.1191809 77.0931968,48.4358275 77.0931968,48.7265418 C77.0931968,49.5454554 77.3160828,50.174654 77.7605588,50.6114079 C78.203739,51.046797 78.7544746,51.4030244 79.4140616,51.6746307 C80.0710568,51.9489668 80.7889568,52.193276 81.566466,52.4130178 C82.3439751,52.6313948 83.0618752,52.9357577 83.7188704,53.3261065 C84.3771614,53.7178202 84.9278971,54.2460194 85.373669,54.9093394 C85.8168492,55.5740243 86.0397351,56.4884778 86.0397351,57.6527 C86.0397351,58.5808021 85.8725706,59.4174588 85.5395376,60.1653999 C85.2065045,60.9106112 84.7568451,61.538445 84.1931509,62.0489011 C83.6294568,62.5579924 82.9633907,62.9483412 82.1949525,63.2213124 C81.4252185,63.4942836 80.6049464,63.6307692 79.7341361,63.6307692 C78.57176,63.6307692 77.4689929,63.4123923 76.4271307,62.9756384 C75.3839726,62.5402493 74.5559254,61.8660104 73.9403974,60.9556515 L75.9658086,59.0994473 Z" id="Fill-14" fill="#FFFFFF"></path>
                <path d="M97.0926981,44.6769231 L99.4253548,44.6769231 L107.549669,63.6307692 L104.546085,63.6307692 L102.641737,58.9458496 L93.6079447,58.9458496 L91.730705,63.6307692 L88.7284768,63.6307692 L97.0926981,44.6769231 Z M101.703795,56.6970882 L98.1648256,47.9965233 L98.1119647,47.9965233 L94.5187787,56.6970882 L101.703795,56.6970882 Z" id="Fill-16" fill="#FFFFFF"></path>
                <path d="M91.6623459,21.2733234 C91.6623459,23.1098475 92.2267983,24.8088043 93.1750785,26.2009859 L69.2967464,26.2009859 L69.2967464,9.47692308 L65.8741722,9.47692308 L65.8741722,29.7846154 L99.7891335,29.7846154 L106.205298,29.7846154 L106.205298,26.2009859 L99.7891335,26.2009859 C97.1953083,26.2009859 95.0849201,23.9902786 95.0849201,21.2733234 C95.0849201,18.5563682 97.1953083,16.3456609 99.7891335,16.3456609 L106.205298,16.3456609 L106.205298,12.7620314 L99.7891335,12.7620314 C95.3080448,12.7620314 91.6623459,16.5809011 91.6623459,21.2733234" id="Fill-18" fill="#FFFFFF"></path>
                <path d="M53.6732992,12.6713965 L43.3524749,12.6713965 L43.3524749,16.1561551 L53.6732992,16.1561551 C56.2802016,16.1561551 58.4025646,18.3058698 58.4025646,20.9478653 C58.4025646,23.5898607 56.2802016,25.7395755 53.6732992,25.7395755 L17.6732176,25.7395755 C17.6732176,25.6820535 17.6812265,25.627207 17.6812265,25.5696851 L17.6812265,9.47692308 L14.2413967,9.47692308 L14.2413967,25.5696851 C14.2413967,28.2116806 12.1203686,30.3613953 9.5121313,30.3613953 C6.90522884,30.3613953 4.78420068,28.2116806 4.78420068,25.5696851 L4.78420068,19.0362645 L1.34437086,19.0362645 L1.34437086,25.5696851 C1.34437086,30.1339831 5.00845035,33.8461538 9.5121313,33.8461538 C12.7210373,33.8461538 15.4947922,31.958632 16.8296117,29.224334 L53.6732992,29.224334 C58.1769801,29.224334 61.8410596,25.5121632 61.8410596,20.9478653 C61.8410596,16.3835673 58.1769801,12.6713965 53.6732992,12.6713965" id="Fill-20" fill="#FFFFFF"></path>
                <polygon id="Fill-22" fill="#FFFFFF" points="45.7086093 37.9076923 49.7417219 37.9076923 49.7417219 33.8461538 45.7086093 33.8461538"></polygon>
            </g>
        </g>
    </g>
</svg>