<svg width="348" height="62" viewBox="0 0 348 62" fill="none" xmlns="http://www.w3.org/2000/svg">
<g clip-path="url(#clip0_2_235)">
<path d="M127.506 28.3839H128.97C129.462 28.4267 129.957 28.3481 130.411 28.1554C130.865 27.9626 131.262 27.6617 131.569 27.2797L140.471 15.5307C140.824 15.0331 141.3 14.6331 141.855 14.3688C142.441 14.14 143.069 14.032 143.699 14.0512H150.01L138.802 28.2829C138.202 29.0975 137.43 29.7745 136.54 30.2675C137.092 30.4828 137.608 30.7797 138.07 31.1479C138.576 31.5629 139.018 32.0492 139.38 32.5913L150.888 48.7859H144.409C144.046 48.7926 143.683 48.7612 143.326 48.6921C143.053 48.6362 142.788 48.549 142.535 48.4323C142.32 48.3257 142.125 48.1842 141.957 48.0137C141.787 47.8297 141.632 47.6317 141.496 47.4219L132.44 34.9368C132.17 34.5352 131.793 34.2153 131.349 34.013C130.783 33.8071 130.181 33.7139 129.578 33.7388H127.535V48.7859H120.229V14.0729H127.506V28.3839Z" fill="#4D4D4E"/>
<path d="M161.73 13.0842V48.7571H155.003V13.0842H161.73Z" fill="#4D4D4E"/>
<path d="M168.7 27.5179C170.12 26.2433 171.775 25.2487 173.575 24.5878C175.428 23.9318 177.383 23.6044 179.352 23.6208C180.719 23.6007 182.077 23.8459 183.349 24.3425C184.474 24.7931 185.49 25.4745 186.328 26.3415C187.165 27.2182 187.806 28.2582 188.21 29.3943C188.66 30.6374 188.884 31.9496 188.869 33.2697V48.7715H185.808C185.306 48.8015 184.804 48.7124 184.344 48.5117C183.945 48.2541 183.656 47.8612 183.532 47.4075L182.997 45.8342C182.368 46.3755 181.753 46.8518 181.167 47.2776C180.589 47.6799 179.974 48.0279 179.33 48.3168C178.679 48.6004 177.999 48.8134 177.302 48.9519C176.505 49.0973 175.696 49.1674 174.886 49.1612C173.866 49.175 172.851 49.0313 171.877 48.7354C171.015 48.47 170.218 48.0327 169.534 47.4508C168.871 46.8702 168.352 46.1466 168.019 45.3363C167.649 44.4058 167.467 43.4128 167.485 42.4135C167.504 41.4596 167.755 40.5241 168.217 39.6855C168.792 38.6689 169.624 37.8162 170.632 37.2101C172.045 36.359 173.588 35.7376 175.201 35.3698C177.544 34.8327 179.94 34.5567 182.346 34.5471V33.2913C182.449 32.0717 182.095 30.8569 181.35 29.8778C180.981 29.504 180.534 29.2137 180.039 29.0268C179.545 28.84 179.016 28.7609 178.488 28.7952C177.707 28.7759 176.927 28.8832 176.182 29.1128C175.623 29.3096 175.082 29.551 174.564 29.8345L173.268 30.5562C172.834 30.7776 172.351 30.8869 171.862 30.8737C171.442 30.8884 171.028 30.7667 170.684 30.5273C170.373 30.3009 170.106 30.0224 169.893 29.7046L168.7 27.5179ZM182.338 38.4514C180.971 38.505 179.609 38.6448 178.261 38.87C177.367 39.0129 176.498 39.2751 175.676 39.6494C175.135 39.8912 174.666 40.2665 174.315 40.7391C174.055 41.1344 173.917 41.5959 173.919 42.067C173.88 42.4511 173.936 42.839 174.084 43.1965C174.232 43.5539 174.467 43.8699 174.769 44.1166C175.44 44.5518 176.236 44.7619 177.038 44.7156C178.047 44.7444 179.049 44.5444 179.966 44.1311C180.879 43.662 181.704 43.042 182.404 42.298L182.338 38.4514Z" fill="#4D4D4E"/>
<path d="M218.503 24.0971L205.011 55.3966C204.841 55.7878 204.578 56.1322 204.242 56.3997C203.816 56.6557 203.319 56.772 202.822 56.7317H197.851L202.588 46.7797L192.544 24.0971H198.4C198.843 24.0705 199.281 24.1982 199.637 24.4579C199.915 24.6804 200.132 24.9683 200.267 25.2951L205.025 37.0874C205.201 37.5565 205.362 38.0184 205.501 38.4875C205.64 38.9566 205.772 39.4257 205.897 39.8876C206.189 38.9494 206.519 38.0112 206.892 37.0658L211.285 25.2951C211.419 24.9328 211.678 24.6287 212.017 24.4363C212.344 24.2144 212.732 24.096 213.13 24.0971H218.503Z" fill="#4D4D4E"/>
<path d="M246.271 24.0971L232.778 55.3966C232.609 55.7878 232.345 56.1322 232.01 56.3997C231.584 56.6557 231.087 56.772 230.59 56.7317H225.619L230.348 46.7797L220.297 24.0971H226.153C226.596 24.0705 227.034 24.1982 227.39 24.4579C227.668 24.6804 227.885 24.9683 228.02 25.2951L232.778 37.0874C232.954 37.5565 233.115 38.0184 233.254 38.4875C233.393 38.9566 233.525 39.4257 233.65 39.8876C233.942 38.9494 234.272 38.0112 234.645 37.0658L239.038 25.2951C239.172 24.9328 239.431 24.6287 239.77 24.4363C240.097 24.2144 240.485 24.096 240.883 24.0971H246.271Z" fill="#4D4D4E"/>
<path d="M272.779 19.8391H262.486V48.7643H255.165V19.8391H244.887V14.0657H272.779V19.8391Z" fill="#4D4D4E"/>
<path d="M277.728 37.4483C277.938 39.7673 278.604 41.4512 279.727 42.5001C280.315 43.0393 281.007 43.4584 281.761 43.7334C282.514 44.0083 283.316 44.1337 284.119 44.1022C284.929 44.118 285.737 44.0084 286.513 43.7774C287.123 43.587 287.716 43.3455 288.285 43.0557L289.668 42.3341C290.044 42.1328 290.463 42.0239 290.891 42.0165C291.125 42.0088 291.357 42.0566 291.569 42.1558C291.78 42.255 291.964 42.4027 292.106 42.5867L294.046 44.9827C293.369 45.7682 292.577 46.4493 291.696 47.0034C290.859 47.5288 289.962 47.9551 289.024 48.2735C288.119 48.581 287.184 48.7963 286.235 48.9158C285.332 49.0348 284.422 49.0951 283.511 49.0962C281.842 49.1105 280.184 48.8218 278.621 48.2447C277.135 47.6988 275.786 46.842 274.668 45.7332C273.495 44.5583 272.59 43.1512 272.01 41.6051C271.327 39.7766 270.996 37.8379 271.037 35.8894C271.025 34.2718 271.311 32.6655 271.879 31.1479C272.405 29.6971 273.232 28.3703 274.307 27.252C275.382 26.1337 276.682 25.2485 278.123 24.6528C279.745 23.9853 281.49 23.656 283.248 23.6857C284.756 23.6628 286.256 23.9072 287.677 24.4074C289.005 24.8888 290.209 25.6505 291.207 26.639C292.205 27.6276 292.971 28.8192 293.453 30.1304C294.018 31.658 294.293 33.275 294.266 34.9007C294.273 35.3085 294.248 35.7162 294.192 36.1204C294.158 36.3897 294.076 36.651 293.951 36.8925C293.846 37.0701 293.684 37.2074 293.49 37.2823C293.254 37.3589 293.006 37.3955 292.758 37.3905L277.728 37.4483ZM288.241 33.5223C288.243 32.8606 288.149 32.2021 287.962 31.5665C287.785 30.9616 287.484 30.3991 287.077 29.9139C286.66 29.4257 286.137 29.036 285.547 28.7736C284.853 28.4827 284.104 28.34 283.35 28.355C282.664 28.316 281.976 28.4148 281.329 28.6456C280.682 28.8763 280.09 29.2341 279.587 29.6973C278.603 30.7568 277.983 32.0953 277.816 33.5223H288.241Z" fill="#4D4D4E"/>
<path d="M318.505 29.6035C318.34 29.826 318.143 30.023 317.919 30.1881C317.674 30.3381 317.387 30.4088 317.099 30.3902C316.767 30.3876 316.442 30.2925 316.162 30.1159C315.862 29.9355 315.518 29.7334 315.13 29.5169C314.687 29.2788 314.224 29.0784 313.746 28.9179C313.102 28.7201 312.429 28.6275 311.755 28.6437C310.855 28.6215 309.963 28.8069 309.149 29.185C308.417 29.5369 307.787 30.0657 307.318 30.7222C306.799 31.4603 306.431 32.2914 306.235 33.1687C305.989 34.2265 305.871 35.3094 305.884 36.3946C305.884 38.9205 306.396 40.8474 307.421 42.1681C307.906 42.815 308.543 43.3357 309.278 43.6853C310.012 44.0349 310.822 44.2027 311.638 44.1744C312.171 44.1823 312.704 44.1315 313.226 44.0228C313.627 43.9312 314.018 43.7982 314.39 43.6259C314.696 43.4806 314.986 43.3041 315.254 43.0991C315.496 42.9042 315.723 42.731 315.942 42.5722C316.15 42.4218 316.371 42.289 316.601 42.1753C316.831 42.0722 317.081 42.0205 317.333 42.0238C317.567 42.0161 317.8 42.0638 318.011 42.163C318.223 42.2622 318.407 42.41 318.549 42.5939L320.467 44.9899C319.799 45.76 319.031 46.4396 318.183 47.0106C317.4 47.5313 316.557 47.9577 315.671 48.2808C314.819 48.5886 313.936 48.8039 313.036 48.9231C312.16 49.0434 311.277 49.1037 310.393 49.1035C308.886 49.1149 307.392 48.8252 306.001 48.2519C304.628 47.6936 303.395 46.8491 302.384 45.7765C301.317 44.6239 300.491 43.275 299.954 41.8072C299.321 40.0722 299.013 38.2382 299.046 36.3946C299.026 34.6787 299.296 32.9715 299.844 31.3428C300.342 29.8576 301.144 28.4893 302.201 27.323C303.27 26.1681 304.582 25.2568 306.045 24.6528C307.73 23.9805 309.535 23.6516 311.352 23.6857C313.071 23.6506 314.78 23.9599 316.374 24.5951C317.833 25.2134 319.154 26.1084 320.262 27.2292L318.505 29.6035Z" fill="#4D4D4E"/>
<path d="M332.487 26.5147C332.952 26.1062 333.441 25.7254 333.951 25.3745C334.465 25.0334 335.009 24.7387 335.577 24.494C336.171 24.2424 336.789 24.0491 337.422 23.9167C338.12 23.777 338.832 23.7093 339.545 23.7146C340.788 23.7001 342.021 23.946 343.161 24.4363C344.186 24.8785 345.096 25.5419 345.826 26.3776C346.565 27.2478 347.118 28.2568 347.451 29.3437C347.822 30.5705 348.005 31.8452 347.993 33.1254V48.7932H341.323V33.0965C341.394 31.9507 341.048 30.8177 340.35 29.8994C339.991 29.5097 339.546 29.2052 339.051 29.009C338.555 28.8127 338.02 28.7298 337.487 28.7664C336.57 28.7598 335.663 28.9623 334.837 29.3582C333.968 29.7921 333.175 30.3597 332.487 31.0397V48.7643H325.789V13.0842H332.487V26.5147Z" fill="#4D4D4E"/>
<path d="M0 0L27.7457 31.0036L55.4841 0H0Z" fill="#29AAE2"/>
<path d="M55.4841 62L27.7457 31.0036L0 62H55.4841Z" fill="#29AAE2"/>
<path d="M98.8743 0H71.1359L57.2631 15.5018L43.3902 31.0036L57.2631 46.5054L71.1359 62H98.8743L71.1359 31.0036L98.8743 0Z" fill="#0D71BA"/>
</g>
<defs>
<clipPath id="clip0_2_235">
<rect width="348" height="62" fill="white"/>
</clipPath>
</defs>
</svg>
